<?xml version="1.0" encoding="UTF-8" standalone="no"?>
<!-- Generator: Adobe Illustrator 16.0.0, SVG Export Plug-In . SVG Version: 6.00 Build 0)  -->

<svg
   xmlns:dc="http://purl.org/dc/elements/1.1/"
   xmlns:cc="http://creativecommons.org/ns#"
   xmlns:rdf="http://www.w3.org/1999/02/22-rdf-syntax-ns#"
   xmlns:svg="http://www.w3.org/2000/svg"
   xmlns="http://www.w3.org/2000/svg"
   xmlns:sodipodi="http://sodipodi.sourceforge.net/DTD/sodipodi-0.dtd"
   xmlns:inkscape="http://www.inkscape.org/namespaces/inkscape"
   version="1.1"
   id="Layer_1"
   x="0px"
   y="0px"
   width="136.913px"
   height="136.913px"
   viewBox="0 0 136.913 136.913"
   enable-background="new 0 0 136.913 136.913"
   xml:space="preserve"
   inkscape:version="0.91 r"
   sodipodi:docname="icon-mask.svg"><metadata
   id="metadata351"><rdf:RDF><cc:Work
       rdf:about=""><dc:format>image/svg+xml</dc:format><dc:type
         rdf:resource="http://purl.org/dc/dcmitype/StillImage" /><dc:title></dc:title></cc:Work></rdf:RDF></metadata><defs
   id="defs349" /><sodipodi:namedview
   pagecolor="#ffffff"
   bordercolor="#666666"
   borderopacity="1"
   objecttolerance="10"
   gridtolerance="10"
   guidetolerance="10"
   inkscape:pageopacity="0"
   inkscape:pageshadow="2"
   inkscape:window-width="2560"
   inkscape:window-height="981"
   id="namedview347"
   showgrid="false"
   inkscape:zoom="1.7237224"
   inkscape:cx="97.173522"
   inkscape:cy="36.919013"
   inkscape:window-x="0"
   inkscape:window-y="22"
   inkscape:window-maximized="1"
   inkscape:current-layer="g5798" />
<g
   id="g3">
	<g
   id="g5">
		<g
   id="g7">
			<g
   id="g9">
				<g
   id="g11">
					<g
   id="g13"
   style="fill:#0088aa">
						<g
   id="g15"
   style="fill:#0088aa">
							<g
   id="g17"
   style="fill:#0088aa">
								<circle
   fill="#344E5D"
   cx="68.456"
   cy="68.455"
   r="63.333"
   id="circle19"
   style="fill:#0088aa" />
							</g>
						</g>
					</g>
				<g
   id="g5798"
   transform="translate(208.03669,-28.736174)"><g
     id="g5782"
     transform="matrix(0.86690072,0,0,0.86690072,-183.32412,49.445814)"
     style="fill:#ffffff"><g
       id="g5784"
       style="fill:#ffffff"><path
         id="path5786"
         d="M 47.806,84.697 C 34.926,80.15 22.799,71.818 21.284,52.12 19.011,31.666 34.165,11.968 56.142,9.696 77.357,7.425 97.812,23.332 100.086,44.545 101.601,61.212 92.509,73.333 78.871,77.121 76.598,84.697 77.356,90 80.386,90 69.778,90 54.625,86.97 47.806,84.697 l 0,0 z M 13.707,80.908 C 4.615,78.636 -0.685,71.061 0.072,60.454 0.827,51.363 6.888,43.029 15.223,40 c -0.758,3.788 -1.516,7.575 -0.758,12.121 -3.03,2.273 -4.546,5.304 -5.304,9.092 0,6.817 3.031,11.363 8.335,12.879 1.515,3.03 0.757,5.303 0,5.303 2.272,0 6.061,0 8.334,-0.758 2.273,2.272 4.546,4.547 7.577,6.819 0,0 0,0 0.758,0 -0.758,0 -0.758,0 -0.758,0 -4.546,2.272 -13.639,3.787 -21.215,3.787 2.273,-10e-4 3.031,-3.788 1.515,-8.335 l 0,0 z M 72.051,67.272 C 80.386,64.241 85.691,56.666 84.933,46.817 83.416,33.18 71.293,23.332 57.656,24.847 44.019,25.605 34.927,38.484 35.684,51.363 37.2,63.485 44.777,68.788 52.353,71.06 c 4.547,2.272 13.638,3.788 20.457,3.788 -1.517,0.001 -2.273,-3.787 -0.759,-7.576 l 0,0 z"
         inkscape:connector-curvature="0"
         style="clip-rule:evenodd;fill:#ffffff;fill-rule:evenodd" /></g></g></g></g>
			</g>
		</g>
	</g>
	
</g>
</svg>